<?xml version="1.0" standalone="no"?>
<!DOCTYPE svg PUBLIC "-//W3C//DTD SVG 20010904//EN"
 "http://www.w3.org/TR/2001/REC-SVG-20010904/DTD/svg10.dtd">
<svg version="1.0" xmlns="http://www.w3.org/2000/svg"
 width="87.000000pt" height="87.000000pt" viewBox="0 0 87.000000 87.000000"
 preserveAspectRatio="xMidYMid meet">
<metadata>
Created by potrace 1.11, written by Peter Selinger 2001-2013
</metadata>
<g transform="translate(0.000000,87.000000) scale(0.100000,-0.100000)"
fill="#000000" stroke="none">
<path d="M322 833 c1 -65 -1 -71 -29 -78 -29 -7 -80 -40 -101 -65 -43 -50 -57
-114 -66 -302 -4 -79 -8 -92 -40 -143 -20 -30 -36 -61 -36 -68 0 -10 66 -12
300 -12 284 0 300 1 300 18 0 10 -11 33 -24 50 -38 50 -47 83 -52 197 -5 126
-10 160 -28 204 -20 48 -79 103 -126 117 l-40 12 0 54 c0 52 0 53 -30 53 -27
0 -29 -2 -28 -37z"/>
<path d="M302 117 c-28 -30 -28 -59 1 -93 20 -23 28 -26 60 -20 21 4 41 15 47
26 40 76 -50 149 -108 87z"/>
</g>
</svg>
