<?xml version="1.0" standalone="no"?>
<!DOCTYPE svg PUBLIC "-//W3C//DTD SVG 20010904//EN"
 "http://www.w3.org/TR/2001/REC-SVG-20010904/DTD/svg10.dtd">
<svg version="1.0" xmlns="http://www.w3.org/2000/svg"
 width="240.000000pt" height="240.000000pt" viewBox="0 0 240.000000 240.000000"
 preserveAspectRatio="xMidYMid meet">
<metadata>
Created by potrace 1.11, written by Peter Selinger 2001-2013
</metadata>
<g transform="translate(0.000000,240.000000) scale(0.100000,-0.100000)"
fill="#000000" stroke="none">
<path d="M1381 1723 c1 -5 1 -28 0 -53 -1 -43 -3 -46 -44 -63 -116 -49 -141
-109 -151 -362 -2 -70 -18 -113 -57 -164 -11 -13 -19 -31 -19 -40 0 -15 30
-16 300 -16 284 0 300 1 300 18 0 10 -11 33 -24 50 -39 51 -47 84 -52 207 -2
63 -11 139 -19 167 -19 65 -76 127 -134 144 l-41 12 0 54 c0 52 0 53 -30 53
-16 0 -29 -3 -29 -7z"/>
<path d="M95 1554 c-43 -14 -84 -57 -86 -89 -1 -11 -2 -94 -3 -185 -2 -180 4
-204 57 -244 41 -30 132 -29 172 2 l29 23 18 -23 c10 -13 18 -21 19 -18 1 3 2
67 3 143 l2 137 -28 1 c-15 1 -34 2 -40 3 -27 4 -61 -11 -64 -27 -2 -14 6 -17
42 -17 l44 0 -1 -67 c-1 -71 -17 -116 -44 -127 -28 -10 -109 -6 -126 7 -34 26
-39 55 -39 216 0 171 6 202 47 220 74 34 162 -5 163 -71 0 -23 5 -28 24 -28
21 0 24 4 21 30 -6 43 -26 80 -55 102 -32 24 -105 30 -155 12z"/>
<path d="M799 1498 c-1 -2 -2 -23 -3 -48 -1 -44 -2 -45 -33 -44 -25 0 -32 -4
-36 -23 -4 -21 -1 -23 33 -23 l37 0 -2 -126 c-1 -101 2 -132 15 -157 20 -37
53 -57 96 -57 25 0 30 4 29 21 -1 17 -9 22 -35 24 -39 3 -60 27 -61 69 0 17
-1 75 -2 129 l-2 97 51 0 c47 0 51 2 50 23 -1 20 -6 22 -48 22 -47 -1 -48 0
-49 30 -1 16 -1 38 0 48 2 11 -5 17 -18 17 -12 0 -21 -1 -22 -2z"/>
<path d="M464 1399 c-43 -21 -55 -61 -55 -183 -1 -155 20 -193 110 -202 73 -7
133 33 142 95 3 17 -2 26 -18 32 -13 5 -24 5 -24 1 -1 -4 -3 -17 -4 -30 -4
-38 -30 -56 -80 -56 -63 0 -79 19 -82 94 l-2 60 105 0 c76 0 104 3 105 13 12
125 -30 188 -124 186 -29 0 -61 -5 -73 -10z m132 -50 c11 -12 19 -37 20 -64
l2 -43 -82 1 -81 2 -3 39 c-5 54 26 86 83 86 30 0 47 -6 61 -21z"/>
<path d="M1790 1200 c-1 -8 -2 -131 -3 -273 l-2 -258 25 3 c24 3 24 4 22 87
-3 77 -1 83 15 76 85 -36 148 -23 179 36 25 49 24 243 -1 286 -33 56 -118 72
-170 31 l-27 -21 -19 24 c-13 17 -19 19 -19 9z m175 -42 c14 -6 26 -18 27 -27
4 -45 6 -218 1 -234 -7 -25 -55 -47 -94 -42 -57 7 -67 29 -67 156 0 104 1 113
23 135 27 26 69 31 110 12z"/>
<path d="M2138 1203 c-3 -7 -2 -478 1 -525 1 -11 7 -15 21 -11 18 5 20 14 20
93 l0 88 38 -19 c42 -22 86 -20 124 5 42 27 50 62 46 195 -3 114 -4 122 -29
146 -41 42 -127 46 -165 8 -16 -16 -18 -16 -35 5 -9 12 -19 19 -21 15z m184
-52 c24 -19 25 -23 23 -141 -1 -147 -7 -156 -105 -152 -48 2 -60 33 -60 155 0
100 2 113 22 134 27 29 85 31 120 4z"/>
<path d="M1361 974 c-27 -35 -26 -59 4 -89 45 -46 115 -19 115 45 0 65 -79 94
-119 44z"/>
</g>
</svg>
